<?xml version="1.0" encoding="UTF-8" standalone="no"?>
<!DOCTYPE svg PUBLIC "-//W3C//DTD SVG 1.1//EN" "http://www.w3.org/Graphics/SVG/1.1/DTD/svg11.dtd">
<svg width="100%" height="100%" viewBox="0 0 13 8" version="1.1" xmlns="http://www.w3.org/2000/svg" xmlns:xlink="http://www.w3.org/1999/xlink" xml:space="preserve" xmlns:serif="http://www.serif.com/" style="fill-rule:evenodd;clip-rule:evenodd;stroke-linejoin:round;stroke-miterlimit:1.41421;">
    <g transform="matrix(1,0,0,1,0,-1)">
        <g id="Forma-1" serif:id="Forma 1" transform="matrix(1,0,0,1,-233.004,-145.981)">
            <path d="M233.128,147.771C233.046,147.681 233.004,147.568 233.004,147.444C233.004,147.32 233.046,147.207 233.128,147.117C233.294,146.936 233.563,146.936 233.728,147.117L239.005,152.871L244.281,147.117C244.447,146.936 244.716,146.936 244.882,147.117C245.047,147.297 245.047,147.591 244.882,147.771L239.305,153.853C239.14,154.034 238.87,154.034 238.705,153.853L233.128,147.771Z" style="fill:white;fill-rule:nonzero;"/>
        </g>
    </g>
</svg>
