<?xml version="1.0" encoding="UTF-8" standalone="no"?>
<!DOCTYPE svg PUBLIC "-//W3C//DTD SVG 1.1//EN" "http://www.w3.org/Graphics/SVG/1.1/DTD/svg11.dtd">
<svg width="100%" height="100%" viewBox="0 0 24 24" version="1.1" xmlns="http://www.w3.org/2000/svg" xmlns:xlink="http://www.w3.org/1999/xlink" xml:space="preserve" xmlns:serif="http://www.serif.com/" style="fill-rule:evenodd;clip-rule:evenodd;stroke-linejoin:round;stroke-miterlimit:1.41421;">
    <g id="Shape-1" serif:id="Shape 1" transform="matrix(0.888252,0,0,0.916007,-9.31797,-124.485)">
        <path d="M27.502,136.991C27.636,136.992 27.763,137.044 27.856,137.138L32.86,142.142C32.954,142.235 33.006,142.362 33.006,142.495L33.006,159.007C33.006,160.111 32.108,161.009 31.005,161.009L16.995,161.009C15.892,161.009 14.993,160.111 14.993,159.007L14.993,138.993C14.993,137.889 15.891,136.992 16.995,136.991L27.502,136.991ZM29.004,142.996C27.9,142.995 27.002,142.098 27.002,140.994L27.002,137.992L16.995,137.992C16.443,137.992 15.994,138.441 15.994,138.993L15.994,159.007C15.994,159.559 16.443,160.008 16.995,160.008L31.005,160.008C31.558,160.007 32.006,159.558 32.006,159.007L32.006,142.996L29.004,142.996ZM24.643,156.642C24.91,156.642 25.126,156.886 25.126,157.188C25.126,157.489 24.91,157.734 24.643,157.734L18.853,157.734C18.587,157.734 18.371,157.489 18.371,157.188C18.371,156.886 18.586,156.642 18.853,156.642L24.643,156.642ZM30.239,154.458C30.524,154.459 30.755,154.703 30.755,155.004C30.755,155.306 30.524,155.55 30.239,155.55L18.887,155.55C18.602,155.55 18.371,155.306 18.371,155.004C18.371,154.703 18.601,154.459 18.887,154.458L30.239,154.458ZM30.239,151.183C30.524,151.184 30.755,151.428 30.755,151.729C30.755,152.031 30.524,152.275 30.239,152.275L18.887,152.275C18.602,152.275 18.371,152.031 18.371,151.729C18.371,151.428 18.601,151.184 18.887,151.183L30.239,151.183ZM30.239,147.908C30.524,147.909 30.755,148.153 30.755,148.454C30.755,148.756 30.524,149 30.239,149L18.887,149C18.602,149 18.371,148.756 18.371,148.454C18.371,148.153 18.601,147.909 18.887,147.908L30.239,147.908ZM19.497,144.633C19.911,144.633 20.247,144.307 20.247,143.905C20.247,143.504 19.91,143.178 19.497,143.178C18.255,143.178 17.245,142.198 17.245,140.994C17.245,140.047 17.874,139.246 18.746,138.945L18.746,138.811C18.746,138.408 19.082,138.083 19.497,138.083C19.911,138.083 20.247,138.408 20.247,138.811L20.998,138.811C21.413,138.811 21.748,139.136 21.748,139.539C21.748,139.941 21.413,140.266 20.998,140.266L19.497,140.266C19.083,140.266 18.746,140.593 18.746,140.994C18.746,141.396 19.083,141.722 19.497,141.722C20.738,141.722 21.748,142.701 21.748,143.905C21.748,144.853 21.119,145.653 20.247,145.955L20.247,146.089C20.247,146.491 19.912,146.817 19.497,146.817C19.082,146.817 18.747,146.492 18.746,146.089L17.996,146.089C17.58,146.088 17.245,145.763 17.245,145.361C17.245,144.959 17.58,144.634 17.996,144.633L19.497,144.633ZM29.146,144.633C29.414,144.634 29.629,144.878 29.629,145.179C29.629,145.481 29.413,145.725 29.146,145.725L23.357,145.725C23.09,145.725 22.874,145.481 22.874,145.179C22.874,144.878 23.089,144.634 23.357,144.633L29.146,144.633ZM31.298,141.995L28.003,138.7L28.003,140.994C28.003,141.546 28.451,141.995 29.003,141.995L31.298,141.995Z" style="fill:rgb(236,236,236);"/>
    </g>
</svg>
