<?xml version="1.0" encoding="UTF-8" standalone="no"?>
<!DOCTYPE svg PUBLIC "-//W3C//DTD SVG 1.1//EN" "http://www.w3.org/Graphics/SVG/1.1/DTD/svg11.dtd">
<svg width="100%" height="100%" viewBox="0 0 24 24" version="1.1" xmlns="http://www.w3.org/2000/svg" xmlns:xlink="http://www.w3.org/1999/xlink" xml:space="preserve" xmlns:serif="http://www.serif.com/" style="fill-rule:evenodd;clip-rule:evenodd;stroke-linejoin:round;stroke-miterlimit:1.41421;">
    <g transform="matrix(0.0878248,0,0,0.0878248,2,1.99987)">
        <g transform="matrix(0.910904,0,0,0.910904,11.3863,11.3866)">
            <path d="M100,100.003L0,100.003L0,0.003L100,0.003L100,100.003ZM13.34,86.662L86.659,86.662L86.659,13.343L13.34,13.343L13.34,86.662Z" style="fill:rgb(236,236,236);fill-rule:nonzero;"/>
        </g>
        <g transform="matrix(0.910904,0,0,0.910904,125.249,11.3866)">
            <path d="M100,100.003L0,100.003L0,0.003L100,0.003L100,100.003ZM13.34,86.662L86.659,86.662L86.659,13.343L13.34,13.343L13.34,86.662Z" style="fill:rgb(236,236,236);fill-rule:nonzero;"/>
        </g>
        <g transform="matrix(0.910904,0,0,0.910904,11.3863,125.25)">
            <path d="M100,100.003L0,100.003L0,0.003L100,0.003L100,100.003ZM13.34,86.662L86.659,86.662L86.659,13.343L13.34,13.343L13.34,86.662Z" style="fill:rgb(236,236,236);fill-rule:nonzero;"/>
        </g>
        <g transform="matrix(0.910904,0,0,0.910904,125.249,125.25)">
            <path d="M100,100.003L0,100.003L0,0.003L100,0.003L100,100.003ZM13.34,86.662L86.659,86.662L86.659,13.343L13.34,13.343L13.34,86.662Z" style="fill:rgb(236,236,236);fill-rule:nonzero;"/>
        </g>
    </g>
</svg>
