<?xml version="1.0" encoding="UTF-8" standalone="no"?>
<!DOCTYPE svg PUBLIC "-//W3C//DTD SVG 1.1//EN" "http://www.w3.org/Graphics/SVG/1.1/DTD/svg11.dtd">
<svg width="100%" height="100%" viewBox="0 0 40 40" version="1.1" xmlns="http://www.w3.org/2000/svg" xmlns:xlink="http://www.w3.org/1999/xlink" xml:space="preserve" xmlns:serif="http://www.serif.com/" style="fill-rule:evenodd;clip-rule:evenodd;stroke-linejoin:round;stroke-miterlimit:1.41421;">
    <g id="Forma-1" serif:id="Forma 1" transform="matrix(1,0,0,1,-366,-327.5)">
        <path d="M382.673,340.036C382.808,338.89 383.799,337.999 385,337.999C386.201,337.999 387.192,338.891 387.327,340.036L390.021,340.036C391.112,340.036 391.999,340.907 391.999,341.978L391.999,342.078C391.999,342.896 391.48,343.597 390.749,343.882L390.749,353.059C390.749,354.13 389.862,355.001 388.772,355.001L381.228,355.001C380.138,355.001 379.251,354.13 379.251,353.059L379.251,343.882C378.52,343.597 378.001,342.896 378.001,342.078L378.001,341.978C378.001,340.907 378.887,340.036 379.978,340.036L382.673,340.036ZM388.772,354.08C389.345,354.08 389.811,353.622 389.811,353.059L389.811,344.02L380.188,344.02L380.188,353.059C380.188,353.622 380.655,354.08 381.228,354.08L388.772,354.08ZM387.514,352.902C387.773,352.902 387.983,352.696 387.983,352.441L387.983,347.255C387.983,347.001 387.773,346.794 387.514,346.794C387.255,346.794 387.045,347.001 387.045,347.255L387.045,352.441C387.045,352.696 387.255,352.902 387.514,352.902ZM382.486,352.902C382.745,352.902 382.955,352.696 382.955,352.441L382.955,347.255C382.955,347.001 382.745,346.794 382.486,346.794C382.227,346.794 382.017,347.001 382.017,347.255L382.017,352.441C382.017,352.696 382.227,352.902 382.486,352.902ZM385,352.902C385.259,352.902 385.469,352.696 385.469,352.441L385.469,347.255C385.469,347.001 385.259,346.794 385,346.794C384.741,346.794 384.531,347.001 384.531,347.255L384.531,352.441C384.531,352.696 384.741,352.902 385,352.902ZM390.021,343.099C390.595,343.099 391.061,342.641 391.061,342.078L391.061,341.978C391.061,341.415 390.594,340.957 390.021,340.957L379.978,340.957C379.405,340.957 378.939,341.415 378.939,341.978L378.939,342.078C378.939,342.641 379.405,343.099 379.978,343.099L390.021,343.099ZM386.379,340.036C386.252,339.4 385.682,338.92 385,338.92C384.317,338.92 383.747,339.401 383.621,340.036L386.379,340.036Z" style="fill:rgb(79,79,79);"/>
    </g>
</svg>
