<?xml version="1.0" encoding="UTF-8" standalone="no"?>
<!DOCTYPE svg PUBLIC "-//W3C//DTD SVG 1.1//EN" "http://www.w3.org/Graphics/SVG/1.1/DTD/svg11.dtd">
<svg width="100%" height="100%" viewBox="0 0 24 24" version="1.1" xmlns="http://www.w3.org/2000/svg" xmlns:xlink="http://www.w3.org/1999/xlink" xml:space="preserve" xmlns:serif="http://www.serif.com/" style="fill-rule:evenodd;clip-rule:evenodd;stroke-linejoin:round;stroke-miterlimit:1.41421;">
    <g id="Forma-1" serif:id="Forma 1" transform="matrix(1,0,0,1,-12.9999,-264)">
        <path d="M33,264.988L33,281.812L27.665,287.012L16,287.012L16,264.988L33,264.988ZM32.045,281.155L32.045,265.927L16.904,265.927L16.904,286.073L26.998,286.073L26.998,281.623C26.998,281.389 27.185,281.156 27.473,281.155L32.045,281.155ZM27.953,285.421L27.953,282.045L31.383,282.045L27.953,285.421ZM29.508,278.079L19.508,278.079L19.508,277.079L29.508,277.079L29.508,278.079ZM29.508,274.096L19.508,274.096L19.508,273.096L29.508,273.096L29.508,274.096ZM29.508,270.109L19.508,270.109L19.508,269.109L29.508,269.109L29.508,270.109Z" style="fill:rgb(236,236,236);"/>
    </g>
</svg>
