<?xml version="1.0" encoding="UTF-8" standalone="no"?>
<!DOCTYPE svg PUBLIC "-//W3C//DTD SVG 1.1//EN" "http://www.w3.org/Graphics/SVG/1.1/DTD/svg11.dtd">
<svg width="100%" height="100%" viewBox="0 0 13 8" version="1.1" xmlns="http://www.w3.org/2000/svg" xmlns:xlink="http://www.w3.org/1999/xlink" xml:space="preserve" xmlns:serif="http://www.serif.com/" style="fill-rule:evenodd;clip-rule:evenodd;stroke-linejoin:round;stroke-miterlimit:1.41421;">
    <g transform="matrix(1,0,0,1,-13.9992,-16.4966)">
        <g id="Forma-1-copy-15" serif:id="Forma 1 copy 15" transform="matrix(1,0,0,1,-718.005,-192.485)">
            <path d="M732.128,209.771C732.046,209.681 732.004,209.568 732.004,209.444C732.004,209.32 732.046,209.207 732.128,209.117C732.294,208.936 732.563,208.936 732.728,209.117L738.005,214.871L743.282,209.117C743.447,208.936 743.716,208.936 743.881,209.117C744.047,209.297 744.047,209.591 743.881,209.771L738.305,215.853C738.14,216.034 737.87,216.034 737.705,215.853L732.128,209.771Z" style="fill:rgb(79,79,79);fill-rule:nonzero;"/>
        </g>
    </g>
</svg>
