<?xml version="1.0" encoding="UTF-8" standalone="no"?>
<!DOCTYPE svg PUBLIC "-//W3C//DTD SVG 1.1//EN" "http://www.w3.org/Graphics/SVG/1.1/DTD/svg11.dtd">
<svg width="100%" height="100%" viewBox="0 0 40 40" version="1.1" xmlns="http://www.w3.org/2000/svg" xmlns:xlink="http://www.w3.org/1999/xlink" xml:space="preserve" xmlns:serif="http://www.serif.com/" style="fill-rule:evenodd;clip-rule:evenodd;stroke-linejoin:round;stroke-miterlimit:1.41421;">
    <g id="Shape-1" serif:id="Shape 1" transform="matrix(1,0,0,1,-316.998,-326.997)">
        <path d="M334.985,340.69C335.315,340.695 335.574,340.959 335.574,341.28C335.574,341.605 335.309,341.871 334.985,341.871L329.436,341.871C329.292,341.871 329.178,341.986 329.178,342.13L329.178,352.559C329.178,352.704 329.292,352.819 329.436,352.819L339.838,352.819C339.987,352.813 340.096,352.7 340.096,352.559L340.096,347.222C340.096,346.897 340.361,346.631 340.685,346.631C341.009,346.631 341.274,346.897 341.274,347.222L341.274,352.559C341.274,353.353 340.63,354 339.838,354L329.436,354C328.644,354 328,353.353 328,352.559L328,342.13C328,341.34 328.639,340.696 329.436,340.69L334.985,340.69ZM343.977,341.277C343.954,341.225 343.941,341.159 343.928,341.093C343.892,340.919 343.853,340.726 343.764,340.529C343.273,339.407 342.462,338.61 341.353,338.16C341.114,338.062 340.875,338.033 340.666,338.009L340.613,338.003C340.371,337.973 340.011,338.006 339.674,338.351C338.244,339.791 336.788,341.251 335.378,342.665L334.344,343.698C334.112,343.931 334.017,344.026 333.968,344.075C333.919,344.125 333.919,344.125 333.879,344.164C333.837,344.207 333.749,344.298 333.493,344.558C333.264,344.791 333.268,345.165 333.5,345.394C333.732,345.624 334.105,345.621 334.334,345.388C334.593,345.125 334.681,345.033 334.724,344.991C334.76,344.955 334.76,344.955 334.802,344.912C334.851,344.863 334.946,344.768 335.178,344.535L336.212,343.498C337.623,342.084 339.079,340.624 340.512,339.181L340.515,339.177L340.525,339.177C340.675,339.197 340.819,339.213 340.914,339.253C341.742,339.588 342.321,340.162 342.691,341.002C342.727,341.087 342.753,341.205 342.779,341.333C342.786,341.366 342.792,341.395 342.799,341.428C342.796,341.431 342.792,341.434 342.786,341.441C340.43,343.797 337.979,346.254 335.286,348.957C335.273,348.97 335.273,348.97 335.25,348.977C334.347,349.167 333.431,349.361 332.548,349.548L332.407,349.577L332.433,349.456C332.623,348.554 332.819,347.622 333.019,346.707C333.088,346.388 332.888,346.073 332.571,346.004C332.253,345.936 331.939,346.136 331.87,346.454C331.671,347.373 331.475,348.308 331.285,349.213L331.177,349.725C331.111,350.04 331.2,350.358 331.416,350.575C331.586,350.745 331.815,350.837 332.06,350.837C332.129,350.837 332.198,350.83 332.266,350.814L332.8,350.703C333.686,350.515 334.599,350.322 335.499,350.132C335.748,350.079 335.954,349.968 336.127,349.79C338.817,347.087 341.271,344.63 343.623,342.274C343.843,342.054 343.964,341.792 343.993,341.477C344,341.412 343.993,341.343 343.977,341.277Z" style="fill:rgb(79,79,79);"/>
    </g>
</svg>
