<?xml version="1.0" encoding="UTF-8" standalone="no"?>
<!DOCTYPE svg PUBLIC "-//W3C//DTD SVG 1.1//EN" "http://www.w3.org/Graphics/SVG/1.1/DTD/svg11.dtd">
<svg width="100%" height="100%" viewBox="0 0 24 24" version="1.1" xmlns="http://www.w3.org/2000/svg" xmlns:xlink="http://www.w3.org/1999/xlink" xml:space="preserve" xmlns:serif="http://www.serif.com/" style="fill-rule:evenodd;clip-rule:evenodd;stroke-linejoin:round;stroke-miterlimit:1.41421;">
    <g id="Forma-1" serif:id="Forma 1" transform="matrix(0.862531,0,0,0.862531,-8.51871,-313.333)">
        <path d="M24.111,367.898C24.409,367.907 24.635,368.137 24.635,368.42C24.635,368.708 24.4,368.942 24.111,368.942L14.403,368.942L14.403,388.904L30.856,388.904L30.856,372.127C30.856,371.839 31.091,371.605 31.38,371.605C31.67,371.605 31.905,371.839 31.905,372.127L31.905,389.426C31.905,389.715 31.67,389.948 31.38,389.948L13.879,389.948C13.589,389.948 13.355,389.715 13.355,389.426L13.355,368.42C13.355,368.137 13.581,367.907 13.879,367.898L24.111,367.898ZM28.418,366.265L20.027,374.655C19.96,374.722 19.912,374.805 19.889,374.896L19.168,377.67C19.121,377.852 19.174,378.045 19.306,378.177C19.407,378.278 19.542,378.332 19.68,378.332C19.725,378.332 19.769,378.327 19.814,378.315L22.587,377.595C22.678,377.571 22.762,377.524 22.828,377.457L31.219,369.066L31.22,369.065L32.909,367.376C33.116,367.17 33.116,366.835 32.909,366.628L30.856,364.575C30.756,364.475 30.622,364.42 30.482,364.42C30.341,364.42 30.207,364.475 30.108,364.575L28.418,366.264C28.418,366.264 28.418,366.264 28.418,366.264C28.418,366.264 28.418,366.264 28.418,366.265ZM22.182,376.607L20.419,377.065L20.877,375.302L28.792,367.387L30.097,368.692L22.182,376.607ZM30.482,365.697L31.787,367.002L30.845,367.943L29.54,366.638L30.482,365.697Z" style="fill:rgb(235,235,235);"/>
    </g>
</svg>
