<?xml version="1.0" encoding="UTF-8" standalone="no"?>
<!DOCTYPE svg PUBLIC "-//W3C//DTD SVG 1.1//EN" "http://www.w3.org/Graphics/SVG/1.1/DTD/svg11.dtd">
<svg width="100%" height="100%" viewBox="0 0 20 18" version="1.1" xmlns="http://www.w3.org/2000/svg" xmlns:xlink="http://www.w3.org/1999/xlink" xml:space="preserve" xmlns:serif="http://www.serif.com/" style="fill-rule:evenodd;clip-rule:evenodd;stroke-linejoin:round;stroke-miterlimit:1.41421;">
    <g transform="matrix(1,0,0,1,-542.183,-201.844)">
        <path id="Forma-1" serif:id="Forma 1" d="M554.777,203.044L554.777,202.444C554.777,202.084 555.017,201.844 555.376,201.844C555.736,201.844 555.976,202.084 555.976,202.444L555.976,203.044L558.375,203.044C560.054,203.044 561.374,204.363 561.374,206.043L561.374,216.843C561.374,218.522 560.054,219.842 558.375,219.842L545.182,219.842C543.503,219.842 542.183,218.522 542.183,216.843L542.183,206.043C542.183,204.364 543.501,203.045 545.182,203.044L547.581,203.044L547.581,202.444C547.581,202.084 547.82,201.844 548.18,201.844C548.54,201.844 548.78,202.084 548.78,202.444L548.78,203.044L554.777,203.044ZM558.375,218.642C559.336,218.641 560.174,217.802 560.174,216.843L560.174,209.043L543.383,209.043L543.383,216.843C543.383,217.802 544.222,218.642 545.182,218.642L558.375,218.642ZM549.979,216.843C550.339,216.843 550.579,216.723 550.819,216.483C551.059,216.243 551.179,215.883 551.179,215.643C551.179,215.403 551.059,215.043 550.819,214.803C550.339,214.323 549.62,214.323 549.14,214.803C548.9,215.043 548.78,215.403 548.78,215.643C548.78,215.883 548.9,216.243 549.14,216.483C549.38,216.723 549.62,216.843 549.979,216.843ZM553.577,216.843C553.937,216.843 554.177,216.723 554.417,216.483C554.657,216.243 554.777,216.003 554.777,215.643C554.777,215.283 554.657,215.043 554.417,214.803C553.937,214.323 553.218,214.323 552.738,214.803C552.498,215.043 552.378,215.403 552.378,215.643C552.378,215.883 552.498,216.243 552.738,216.483C552.978,216.723 553.218,216.843 553.577,216.843ZM557.176,216.843C557.536,216.843 557.775,216.723 558.015,216.483C558.255,216.243 558.375,215.883 558.375,215.643C558.375,215.403 558.255,215.043 558.015,214.803C557.536,214.323 556.816,214.323 556.336,214.803C556.096,215.043 555.976,215.283 555.976,215.643C555.976,215.883 556.096,216.243 556.336,216.483C556.576,216.723 556.816,216.843 557.176,216.843ZM546.381,216.843C546.741,216.843 546.981,216.723 547.221,216.483C547.461,216.243 547.581,215.883 547.581,215.643C547.581,215.403 547.461,215.043 547.221,214.803C546.741,214.323 546.021,214.323 545.541,214.803C545.302,215.043 545.182,215.283 545.182,215.643C545.182,215.883 545.302,216.243 545.541,216.483C545.781,216.723 546.021,216.843 546.381,216.843ZM549.979,213.243C550.339,213.243 550.579,213.123 550.819,212.883C551.059,212.643 551.179,212.283 551.179,212.043C551.179,211.803 551.059,211.443 550.819,211.203C550.339,210.723 549.62,210.723 549.14,211.203C548.9,211.443 548.78,211.803 548.78,212.043C548.78,212.283 548.9,212.643 549.14,212.883C549.38,213.123 549.62,213.243 549.979,213.243ZM553.577,213.243C553.937,213.243 554.177,213.123 554.417,212.883C554.657,212.643 554.777,212.403 554.777,212.043C554.777,211.803 554.657,211.443 554.417,211.203C553.937,210.723 553.218,210.723 552.738,211.203C552.498,211.443 552.378,211.803 552.378,212.043C552.378,212.283 552.498,212.643 552.738,212.883C552.978,213.123 553.218,213.243 553.577,213.243ZM557.176,213.243C557.536,213.243 557.775,213.123 558.015,212.883C558.255,212.643 558.375,212.403 558.375,212.043C558.375,211.803 558.255,211.443 558.015,211.203C557.536,210.723 556.816,210.723 556.336,211.203C556.096,211.443 555.976,211.803 555.976,212.043C555.976,212.283 556.096,212.643 556.336,212.883C556.576,213.123 556.816,213.243 557.176,213.243ZM546.381,213.243C546.741,213.243 546.981,213.123 547.221,212.883C547.461,212.643 547.581,212.283 547.581,212.043C547.581,211.803 547.461,211.443 547.221,211.203C546.741,210.723 546.021,210.723 545.541,211.203C545.302,211.443 545.182,211.683 545.182,212.043C545.182,212.403 545.302,212.643 545.541,212.883C545.781,213.123 546.021,213.243 546.381,213.243ZM560.174,207.843L560.174,206.043C560.174,205.083 559.335,204.243 558.375,204.243L555.976,204.243L555.976,204.843C555.976,205.203 555.737,205.443 555.377,205.443C555.017,205.443 554.777,205.203 554.777,204.843L554.777,204.243L548.78,204.243L548.78,204.843C548.78,205.203 548.54,205.443 548.18,205.443C547.82,205.443 547.581,205.203 547.581,204.843L547.581,204.243L545.182,204.243C544.222,204.243 543.383,205.083 543.383,206.043L543.383,207.843L560.174,207.843Z" style="fill:rgb(101,101,101);"/>
    </g>
</svg>
