<?xml version="1.0" encoding="UTF-8" standalone="no"?>
<!DOCTYPE svg PUBLIC "-//W3C//DTD SVG 1.1//EN" "http://www.w3.org/Graphics/SVG/1.1/DTD/svg11.dtd">
<svg width="100%" height="100%" viewBox="0 0 18 18" version="1.1" xmlns="http://www.w3.org/2000/svg" xmlns:xlink="http://www.w3.org/1999/xlink" xml:space="preserve" xmlns:serif="http://www.serif.com/" style="fill-rule:evenodd;clip-rule:evenodd;stroke-linejoin:round;stroke-miterlimit:1.41421;">
    <g transform="matrix(1,0,0,1,-11.0002,-11.0002)">
        <g id="Forma-1" serif:id="Forma 1" transform="matrix(1,0,0,1,-715,-281)">
            <path d="M734.997,292C737.481,292 739.73,293.01 741.363,294.636C742.99,296.268 744,298.517 744,301C744,303.483 742.99,305.732 741.363,307.364C739.73,308.99 737.481,310 734.997,310C732.512,310 730.263,308.99 728.637,307.364C727.004,305.732 726,303.484 726,301C726,298.517 727.003,296.268 728.637,294.636C730.263,293.01 732.512,292 734.997,292L734.997,292ZM739.585,300.509C739.855,300.509 740.07,300.73 740.07,301C740.07,301.27 739.855,301.491 739.585,301.491L735.011,301.491L734.997,301.491C734.817,301.491 734.657,301.387 734.575,301.242L734.568,301.235L734.561,301.221L734.561,301.214L734.554,301.2L734.547,301.187L734.547,301.18L734.54,301.166L734.533,301.159L734.533,301.145L734.526,301.131L734.526,301.124L734.519,301.11L734.519,301.096L734.519,301.089L734.519,301.082L734.512,301.075L734.512,301.061L734.512,301.047L734.512,301.035L734.512,301.028L734.512,301.014L734.512,301L734.512,295.141C734.512,294.871 734.726,294.657 734.996,294.657C735.266,294.657 735.488,294.871 735.488,295.141L735.488,300.509L739.585,300.509ZM740.671,295.328C739.218,293.875 737.211,292.983 734.997,292.983C732.782,292.983 730.775,293.875 729.322,295.328C727.876,296.78 726.976,298.786 726.976,301C726.976,303.214 727.875,305.22 729.322,306.673C730.775,308.125 732.782,309.018 734.997,309.018C737.211,309.018 739.218,308.125 740.671,306.673C740.901,306.443 741.117,306.199 741.318,305.943C742.387,304.58 743.024,302.864 743.024,301C743.024,298.786 742.125,296.78 740.671,295.328L740.671,295.328Z" style="fill:rgb(79,79,79);fill-rule:nonzero;"/>
        </g>
    </g>
</svg>
