<?xml version="1.0" encoding="UTF-8" standalone="no"?><!DOCTYPE svg PUBLIC "-//W3C//DTD SVG 1.1//EN" "http://www.w3.org/Graphics/SVG/1.1/DTD/svg11.dtd"><svg width="100%" height="100%" viewBox="0 0 20 20" version="1.1" xmlns="http://www.w3.org/2000/svg" xmlns:xlink="http://www.w3.org/1999/xlink" xml:space="preserve" xmlns:serif="http://www.serif.com/" style="fill-rule:evenodd;clip-rule:evenodd;stroke-linejoin:round;stroke-miterlimit:1.41421;"><path id="Layer-20" serif:id="Layer 20" d="M18.704,17.353l-5.186,0c-0.367,-0.006 -0.666,-0.309 -0.666,-0.676c0,-0.004 0,-0.007 0,-0.01c0,-0.38 0.299,-0.686 0.666,-0.686l4.453,0c-0.181,-0.954 -0.75,-1.79 -1.57,-2.308c-1.009,-0.635 -2.285,-0.681 -3.336,-0.12c-0.095,0.051 -0.201,0.077 -0.308,0.077c-0.251,0 -0.482,-0.144 -0.591,-0.37c-0.169,-0.333 -0.042,-0.745 0.285,-0.924c1.464,-0.781 3.24,-0.718 4.643,0.166c1.413,0.885 2.276,2.462 2.276,4.165c0.001,0.003 0.001,0.006 0.001,0.01c0,0.366 -0.298,0.669 -0.667,0.676Zm-7.038,0l-10.369,0c-0.368,-0.005 -0.668,-0.309 -0.668,-0.676c0,-0.004 0,-0.007 0,-0.01c0,-3.324 2.62,-6.019 5.853,-6.019c3.232,0 5.851,2.695 5.851,6.02c0.001,0.003 0.001,0.006 0.001,0.009c0,0.366 -0.299,0.669 -0.668,0.676Zm-0.714,-1.372c-0.324,-2.243 -2.201,-3.961 -4.47,-3.961c-2.269,0 -4.148,1.72 -4.471,3.961l8.941,0Zm3.307,-5.866c-1.39,0 -2.518,-1.16 -2.518,-2.59c0,-1.432 1.127,-2.591 2.518,-2.591c1.391,0 2.519,1.159 2.519,2.59c0,1.431 -1.128,2.59 -2.519,2.59l0,0.001Zm-8.147,-0.762c-1.801,0 -3.261,-1.502 -3.261,-3.352c0,-1.852 1.46,-3.354 3.261,-3.354c1.799,0 3.259,1.502 3.259,3.354c0,1.85 -1.46,3.352 -3.259,3.352Zm8.147,-0.61c0.656,0 1.186,-0.546 1.186,-1.219c0,-0.673 -0.53,-1.219 -1.186,-1.219c-0.654,0 -1.185,0.546 -1.185,1.22c0,0.672 0.53,1.218 1.185,1.218Zm-8.147,-0.762c1.064,0 1.925,-0.886 1.925,-1.98c0,-1.095 -0.861,-1.982 -1.925,-1.982c-1.064,0 -1.927,0.887 -1.927,1.981c0,1.095 0.863,1.981 1.927,1.981Z" style="fill:#fff;"/></svg>