<?xml version="1.0" encoding="UTF-8" standalone="no"?>
<!DOCTYPE svg PUBLIC "-//W3C//DTD SVG 1.1//EN" "http://www.w3.org/Graphics/SVG/1.1/DTD/svg11.dtd">
<svg width="100%" height="100%" viewBox="0 0 24 24" version="1.1" xmlns="http://www.w3.org/2000/svg" xmlns:xlink="http://www.w3.org/1999/xlink" xml:space="preserve" xmlns:serif="http://www.serif.com/" style="fill-rule:evenodd;clip-rule:evenodd;stroke-linejoin:round;stroke-miterlimit:1.41421;">
    <g transform="matrix(1,0,0,1,-1490.5,-314.501)">
        <path id="Forma-1" serif:id="Forma 1" d="M1514.5,326.5C1514.5,319.873 1509.13,314.501 1502.5,314.501C1495.87,314.501 1490.5,319.873 1490.5,326.5C1490.5,333.127 1495.87,338.499 1502.5,338.499C1509.13,338.499 1514.5,333.127 1514.5,326.5ZM1491.59,326.5C1491.59,320.475 1496.48,315.591 1502.5,315.591C1508.53,315.591 1513.41,320.475 1513.41,326.5C1513.41,332.524 1508.53,337.408 1502.5,337.408C1496.48,337.408 1491.59,332.524 1491.59,326.5ZM1502.86,332.444L1501.27,332.444L1501.27,330.782L1502.86,330.782L1502.86,332.444ZM1500,324.382L1498.57,324.382C1498.57,323.232 1498.9,322.306 1499.55,321.606C1500.2,320.906 1501.09,320.556 1502.23,320.556C1503.27,320.556 1504.11,320.855 1504.75,321.454C1505.38,322.054 1505.69,322.82 1505.69,323.752C1505.69,324.317 1505.58,324.775 1505.35,325.126C1505.11,325.478 1504.65,325.994 1503.94,326.676C1503.43,327.173 1503.1,327.591 1502.95,327.935C1502.8,328.279 1502.72,328.786 1502.72,329.457L1501.3,329.457C1501.3,328.696 1501.39,328.081 1501.57,327.615C1501.75,327.149 1502.15,326.615 1502.76,326.013L1503.4,325.381C1503.59,325.2 1503.74,325.011 1503.86,324.814C1504.07,324.467 1504.18,324.108 1504.18,323.736C1504.18,323.214 1504.03,322.761 1503.71,322.378C1503.4,321.994 1502.89,321.801 1502.17,321.801C1501.28,321.801 1500.66,322.132 1500.32,322.792C1500.13,323.159 1500.02,323.689 1500,324.382Z" style="fill:rgb(79,79,79);"/>
    </g>
</svg>
