<?xml version="1.0" encoding="UTF-8" standalone="no"?>
<!DOCTYPE svg PUBLIC "-//W3C//DTD SVG 1.1//EN" "http://www.w3.org/Graphics/SVG/1.1/DTD/svg11.dtd">
<svg width="100%" height="100%" viewBox="0 0 71 71" version="1.1" xmlns="http://www.w3.org/2000/svg" xmlns:xlink="http://www.w3.org/1999/xlink" xml:space="preserve" xmlns:serif="http://www.serif.com/" style="fill-rule:evenodd;clip-rule:evenodd;stroke-linejoin:round;stroke-miterlimit:1.41421;">
    <g id="Forma-1" serif:id="Forma 1" transform="matrix(1,0,0,1,-746,-259)">
        <path d="M790.174,302.257C790.088,297.081 789.387,295.606 784.017,294.672C784.017,294.672 783.261,295.6 781.5,295.6C779.738,295.6 778.982,294.672 778.982,294.672C773.671,295.596 772.927,297.049 772.829,302.089C772.821,302.5 772.817,302.522 772.815,302.474C772.816,302.564 772.816,302.729 772.816,303.018C772.816,303.018 774.095,305.501 781.5,305.501C788.905,305.501 790.183,303.018 790.183,303.018C790.183,302.832 790.183,302.703 790.183,302.616C790.182,302.645 790.179,302.588 790.174,302.257ZM790.183,302.616C790.186,302.566 790.184,302.272 790.183,302.616L790.183,302.616ZM781.5,294.259C784.039,294.259 786.097,291.851 786.097,288.879C786.097,285.908 785.421,283.499 781.5,283.499C777.578,283.499 776.902,285.908 776.902,288.879C776.902,291.851 778.96,294.259 781.5,294.259Z" style="fill:white;"/>
    </g>
</svg>
