<?xml version="1.0" encoding="UTF-8" standalone="no"?>
<!DOCTYPE svg PUBLIC "-//W3C//DTD SVG 1.1//EN" "http://www.w3.org/Graphics/SVG/1.1/DTD/svg11.dtd">
<svg width="100%" height="100%" viewBox="0 0 25 26" version="1.1" xmlns="http://www.w3.org/2000/svg" xmlns:xlink="http://www.w3.org/1999/xlink" xml:space="preserve" xmlns:serif="http://www.serif.com/" style="fill-rule:evenodd;clip-rule:evenodd;stroke-linejoin:round;stroke-miterlimit:1.41421;">
    <g transform="matrix(1,0,0,1,-1519.98,-21.1261)">
        <path id="Shape-1" serif:id="Shape 1" d="M1531.71,21.126C1532.13,21.131 1532.45,21.46 1532.45,21.871C1532.45,22.285 1532.12,22.616 1531.71,22.616L1524.81,22.616C1522.98,22.616 1521.47,24.111 1521.47,25.954L1521.47,42.297C1521.47,44.135 1522.97,45.635 1524.81,45.635L1531.6,45.635C1532,45.635 1532.34,45.966 1532.34,46.38C1532.34,46.794 1532.01,47.125 1531.6,47.125L1524.81,47.125C1522.15,47.125 1519.98,44.962 1519.98,42.297L1519.98,25.954C1519.98,23.297 1522.14,21.131 1524.81,21.126L1531.71,21.126ZM1541.55,33.386L1538.08,29.921C1537.79,29.629 1537.79,29.16 1538.08,28.867C1538.37,28.575 1538.84,28.575 1539.13,28.867L1543.87,33.601C1544.16,33.888 1544.16,34.363 1543.86,34.661L1539.13,39.395C1538.99,39.544 1538.79,39.616 1538.61,39.616C1538.42,39.616 1538.22,39.538 1538.08,39.395C1537.79,39.102 1537.79,38.633 1538.08,38.341L1541.55,34.876L1526.43,34.876C1526.01,34.871 1525.68,34.542 1525.68,34.131C1525.68,33.721 1526.01,33.391 1526.43,33.386L1541.55,33.386Z" style="fill:rgb(79,79,79);"/>
    </g>
</svg>
