<?xml version="1.0" encoding="UTF-8" standalone="no"?>
<!DOCTYPE svg PUBLIC "-//W3C//DTD SVG 1.1//EN" "http://www.w3.org/Graphics/SVG/1.1/DTD/svg11.dtd">
<svg width="100%" height="100%" viewBox="0 0 24 24" version="1.1" xmlns="http://www.w3.org/2000/svg" xmlns:xlink="http://www.w3.org/1999/xlink" xml:space="preserve" xmlns:serif="http://www.serif.com/" style="fill-rule:evenodd;clip-rule:evenodd;stroke-linejoin:round;stroke-miterlimit:1.41421;">
    <g id="Forma-1" serif:id="Forma 1" transform="matrix(1,0,0,1,-12.078,-314.078)">
        <path d="M32.664,330.455C32.074,329.865 31.086,329.35 29.529,328.571C28.743,328.178 27.437,327.525 27.12,327.226C28.447,325.596 29.216,323.755 29.216,322.143C29.216,321.049 29.216,319.688 28.604,318.474C28.053,317.381 26.819,316.078 24.078,316.078C21.337,316.078 20.103,317.381 19.552,318.474C18.939,319.688 18.939,321.049 18.939,322.142C18.939,323.755 19.709,325.596 21.036,327.226C20.718,327.526 19.412,328.179 18.627,328.571C17.07,329.349 16.082,329.864 15.491,330.455C14.184,331.763 14.085,333.959 14.078,334.386C14.071,334.832 14.244,335.262 14.557,335.581C14.87,335.898 15.298,336.078 15.744,336.078L32.411,336.078C32.858,336.078 33.285,335.899 33.598,335.581C33.912,335.262 34.084,334.831 34.078,334.385C34.071,333.959 33.972,331.764 32.664,330.455ZM32.708,334.704C32.629,334.784 32.523,334.828 32.411,334.828L15.744,334.828C15.634,334.828 15.526,334.783 15.448,334.704C15.37,334.625 15.327,334.516 15.328,334.405C15.331,334.196 15.389,332.326 16.375,331.339C16.831,330.884 17.784,330.39 19.186,329.689C20.682,328.941 21.512,328.496 21.894,328.134L22.738,327.337L22.005,326.437C20.851,325.02 20.189,323.454 20.189,322.143C20.189,321.131 20.189,319.986 20.668,319.037C21.241,317.903 22.387,317.328 24.078,317.328C25.768,317.328 26.916,317.903 27.488,319.037C27.967,319.986 27.967,321.131 27.967,322.143C27.967,323.454 27.305,325.019 26.15,326.437L25.418,327.337L26.261,328.134C26.643,328.495 27.472,328.941 28.969,329.689C30.371,330.39 31.324,330.884 31.78,331.339C32.583,332.142 32.816,333.644 32.827,334.405C32.829,334.516 32.786,334.625 32.708,334.704Z" style="fill:rgb(235,235,235);fill-rule:nonzero;"/>
    </g>
</svg>
