<?xml version="1.0" encoding="UTF-8" standalone="no"?>
<!DOCTYPE svg PUBLIC "-//W3C//DTD SVG 1.1//EN" "http://www.w3.org/Graphics/SVG/1.1/DTD/svg11.dtd">
<svg width="100%" height="100%" viewBox="0 0 40 40" version="1.1" xmlns="http://www.w3.org/2000/svg" xmlns:xlink="http://www.w3.org/1999/xlink" xml:space="preserve" xmlns:serif="http://www.serif.com/" style="fill-rule:evenodd;clip-rule:evenodd;stroke-linejoin:round;stroke-miterlimit:1.41421;">
    <g id="Forma-1-copy-9" serif:id="Forma 1 copy 9" transform="matrix(-1,0,-0,1,1222.5,-797.991)">
        <path d="M1207.35,813.091C1207.42,813.022 1207.52,812.988 1207.62,812.988C1207.73,812.988 1207.82,813.022 1207.89,813.091C1208.05,813.229 1208.05,813.454 1207.89,813.592L1203.1,817.991L1207.89,822.391C1208.05,822.529 1208.05,822.753 1207.89,822.891C1207.74,823.029 1207.5,823.029 1207.35,822.891L1202.28,818.241C1202.13,818.103 1202.13,817.879 1202.28,817.741L1207.35,813.091Z" style="fill:rgb(79,79,79);fill-rule:nonzero;"/>
    </g>
    <g id="Forma-1-copy-91" serif:id="Forma 1 copy 9" transform="matrix(-1,0,-0,1,1222.5,-797.991)">
        <path d="M1202.18,813.091C1202.26,813.022 1202.35,812.988 1202.45,812.988C1202.56,812.988 1202.65,813.022 1202.73,813.091C1202.88,813.229 1202.88,813.454 1202.73,813.592L1197.93,817.991L1202.73,822.391C1202.88,822.529 1202.88,822.753 1202.73,822.891C1202.58,823.029 1202.33,823.029 1202.18,822.891L1197.11,818.241C1196.96,818.103 1196.96,817.879 1197.11,817.741L1202.18,813.091Z" style="fill:rgb(79,79,79);fill-rule:nonzero;"/>
    </g>
</svg>
