<?xml version="1.0" encoding="UTF-8" standalone="no"?>
<!DOCTYPE svg PUBLIC "-//W3C//DTD SVG 1.1//EN" "http://www.w3.org/Graphics/SVG/1.1/DTD/svg11.dtd">
<svg width="100%" height="100%" viewBox="0 0 40 40" version="1.1" xmlns="http://www.w3.org/2000/svg" xmlns:xlink="http://www.w3.org/1999/xlink" xml:space="preserve" xmlns:serif="http://www.serif.com/" style="fill-rule:evenodd;clip-rule:evenodd;stroke-linejoin:round;stroke-miterlimit:1.41421;">
    <g transform="matrix(1,0,0,1,-1373.5,-13.5005)">
        <path id="Forma-1" serif:id="Forma 1" d="M1413.5,33.5C1413.5,22.473 1404.53,13.501 1393.5,13.501C1382.47,13.501 1373.5,22.473 1373.5,33.5C1373.5,39.325 1376.01,44.575 1379.99,48.233L1379.97,48.249L1380.62,48.796C1380.66,48.832 1380.71,48.861 1380.75,48.896C1381.1,49.182 1381.45,49.453 1381.82,49.716C1381.93,49.801 1382.05,49.886 1382.17,49.969C1382.56,50.236 1382.96,50.49 1383.37,50.731C1383.46,50.783 1383.55,50.834 1383.63,50.885C1384.08,51.139 1384.54,51.378 1385,51.598C1385.04,51.614 1385.07,51.628 1385.11,51.644C1386.62,52.35 1388.25,52.869 1389.94,53.175C1389.99,53.183 1390.03,53.191 1390.08,53.199C1390.6,53.29 1391.13,53.363 1391.67,53.411C1391.74,53.417 1391.81,53.421 1391.87,53.427C1392.41,53.471 1392.95,53.499 1393.5,53.499C1394.05,53.499 1394.58,53.471 1395.12,53.428C1395.18,53.422 1395.25,53.419 1395.32,53.413C1395.85,53.364 1396.38,53.294 1396.9,53.204C1396.95,53.196 1396.99,53.188 1397.04,53.179C1398.71,52.88 1400.31,52.373 1401.81,51.685C1401.86,51.659 1401.92,51.635 1401.97,51.609C1402.42,51.398 1402.86,51.171 1403.29,50.929C1403.4,50.868 1403.5,50.807 1403.61,50.745C1404,50.514 1404.39,50.273 1404.76,50.017C1404.89,49.926 1405.03,49.829 1405.16,49.733C1405.48,49.503 1405.79,49.266 1406.1,49.018C1406.16,48.964 1406.24,48.916 1406.3,48.86L1406.97,48.305L1406.95,48.288C1410.97,44.628 1413.5,39.354 1413.5,33.5ZM1374.95,33.5C1374.95,23.274 1383.27,14.955 1393.5,14.955C1403.73,14.955 1412.05,23.274 1412.05,33.5C1412.05,39.01 1409.63,43.964 1405.8,47.364C1405.59,47.216 1405.37,47.084 1405.15,46.973L1398.99,43.895C1398.44,43.618 1398.1,43.063 1398.1,42.445L1398.1,40.295C1398.24,40.119 1398.39,39.919 1398.54,39.701C1399.34,38.575 1399.98,37.322 1400.45,35.975C1401.37,35.537 1401.96,34.619 1401.96,33.583L1401.96,31.005C1401.96,30.374 1401.73,29.763 1401.32,29.282L1401.32,25.888C1401.36,25.51 1401.49,23.38 1399.95,21.623C1398.61,20.093 1396.44,19.319 1393.5,19.319C1390.56,19.319 1388.39,20.093 1387.05,21.622C1385.51,23.38 1385.64,25.51 1385.68,25.887L1385.68,29.281C1385.27,29.762 1385.04,30.374 1385.04,31.004L1385.04,33.582C1385.04,34.383 1385.4,35.13 1386.01,35.634C1386.6,37.941 1387.81,39.688 1388.26,40.28L1388.26,42.385C1388.26,42.978 1387.94,43.524 1387.42,43.809L1381.66,46.945C1381.48,47.045 1381.3,47.161 1381.12,47.292C1377.34,43.894 1374.95,38.97 1374.95,33.5ZM1404.38,48.505C1404.12,48.689 1403.87,48.868 1403.6,49.039C1403.48,49.118 1403.36,49.196 1403.24,49.273C1402.9,49.485 1402.55,49.687 1402.19,49.876C1402.11,49.918 1402.03,49.957 1401.95,49.998C1401.13,50.417 1400.29,50.778 1399.42,51.071C1399.39,51.081 1399.36,51.092 1399.32,51.102C1398.87,51.254 1398.41,51.388 1397.94,51.504C1397.94,51.504 1397.94,51.505 1397.94,51.505C1397.46,51.621 1396.99,51.718 1396.51,51.797C1396.49,51.799 1396.48,51.802 1396.47,51.804C1396.02,51.878 1395.56,51.931 1395.1,51.971C1395.02,51.978 1394.94,51.983 1394.86,51.989C1394.41,52.023 1393.96,52.045 1393.5,52.045C1393.04,52.045 1392.58,52.022 1392.12,51.988C1392.04,51.982 1391.96,51.977 1391.88,51.97C1391.42,51.929 1390.96,51.875 1390.51,51.801C1390.49,51.797 1390.47,51.793 1390.45,51.79C1389.49,51.629 1388.54,51.393 1387.62,51.083C1387.59,51.074 1387.56,51.064 1387.53,51.054C1387.08,50.899 1386.62,50.726 1386.18,50.536C1386.18,50.534 1386.17,50.533 1386.17,50.532C1385.75,50.35 1385.34,50.15 1384.93,49.938C1384.88,49.91 1384.82,49.884 1384.77,49.856C1384.4,49.657 1384.04,49.443 1383.68,49.219C1383.57,49.152 1383.47,49.084 1383.36,49.016C1383.03,48.8 1382.7,48.575 1382.39,48.337C1382.36,48.313 1382.32,48.286 1382.29,48.262C1382.32,48.249 1382.34,48.236 1382.36,48.222L1388.11,45.086C1389.1,44.546 1389.71,43.511 1389.71,42.385L1389.71,39.765L1389.55,39.563C1389.53,39.545 1387.96,37.632 1387.37,35.042L1387.3,34.754L1387.05,34.594C1386.7,34.368 1386.49,33.989 1386.49,33.581L1386.49,31.003C1386.49,30.665 1386.63,30.35 1386.9,30.114L1387.14,29.897L1387.14,25.846L1387.13,25.751C1387.13,25.734 1386.91,23.985 1388.14,22.58C1389.2,21.382 1391,20.773 1393.5,20.773C1395.99,20.773 1397.79,21.377 1398.84,22.566C1400.07,23.956 1399.87,25.738 1399.87,25.753L1399.86,29.899L1400.1,30.115C1400.37,30.351 1400.51,30.667 1400.51,31.005L1400.51,33.583C1400.51,34.101 1400.16,34.572 1399.65,34.728L1399.29,34.84L1399.17,35.2C1398.74,36.533 1398.13,37.764 1397.36,38.859C1397.17,39.128 1396.98,39.367 1396.82,39.549L1396.64,39.755L1396.64,42.445C1396.64,43.618 1397.29,44.672 1398.34,45.196L1404.5,48.274C1404.54,48.294 1404.58,48.314 1404.62,48.334C1404.54,48.393 1404.46,48.448 1404.38,48.505Z" style="fill:rgb(153,153,153);fill-rule:nonzero;"/>
    </g>
</svg>
